<?xml version="1.0" standalone="no"?><!DOCTYPE svg PUBLIC "-//W3C//DTD SVG 1.1//EN" "http://www.w3.org/Graphics/SVG/1.1/DTD/svg11.dtd"><svg t="1763656012575" class="icon" viewBox="0 0 1024 1024" version="1.1" xmlns="http://www.w3.org/2000/svg" p-id="1756" xmlns:xlink="http://www.w3.org/1999/xlink" width="200" height="200"><path d="M956.672 867.2l-180.010667-436.053333a44.032 44.032 0 0 0-81.322666 0l-180.010667 436.053333a43.946667 43.946667 0 0 0 57.6 57.6 43.904 43.904 0 0 0 23.765333-24.021333l36.650667-88.789334h205.354667l36.650666 88.746667a44.032 44.032 0 1 0 81.322667-33.536z m-286.976-143.232l66.304-160.682667 66.346667 160.682667h-132.693334zM535.68 685.824a43.989333 43.989333 0 0 0-9.813333-61.397333c-0.384-0.298667-29.952-22.229333-72.96-69.461334 79.317333-107.349333 124.245333-229.504 142.549333-286.976h64.554667a43.989333 43.989333 0 0 0 0-87.978666H427.946667V139.946667a43.989333 43.989333 0 1 0-87.978667 0v40.021333H107.946667a43.989333 43.989333 0 1 0 0 87.978667h394.496c-19.029333 53.930667-54.101333 139.008-107.562667 216.746666-62.805333-83.370667-86.186667-137.301333-86.357333-137.770666a43.989333 43.989333 0 0 0-81.152 34.005333c1.152 2.773333 29.098667 68.48 105.728 167.850667l5.461333 7.04c-78.464 88.704-155.477333 143.701333-187.690667 161.493333a43.946667 43.946667 0 1 0 42.154667 77.226667c4.309333-2.346667 97.194667-53.76 203.264-171.178667 45.013333 48.213333 75.989333 70.912 77.866667 72.234667a43.989333 43.989333 0 0 0 61.482666-9.813334z" p-id="1757"></path></svg>