<svg xmlns="http://www.w3.org/2000/svg" viewBox="0 0 1200 630" fill="none">
  <rect width="1200" height="630" fill="#1e1e1e"/>
  <defs>
    <linearGradient id="feGrad" x1="0%" y1="0%" x2="100%" y2="100%">
      <stop offset="0%" style="stop-color:#1e1e1e"/>
      <stop offset="100%" style="stop-color:#2d2d2d"/>
    </linearGradient>
  </defs>
  <rect width="1200" height="630" fill="url(#feGrad)"/>
  <text x="600" y="180" font-family="system-ui, sans-serif" font-size="40" font-weight="700" fill="white" text-anchor="middle">前端工程化</text>
  <text x="600" y="230" font-family="system-ui, sans-serif" font-size="32" font-weight="400" fill="#a1a1aa" text-anchor="middle">学习路径</text>
  <rect x="100" y="290" width="280" height="100" rx="12" fill="#f97316" fill-opacity="0.15"/>
  <rect x="100" y="290" width="280" height="24" rx="8" fill="#f97316" fill-opacity="0.3"/>
  <text x="240" y="360" font-family="system-ui, sans-serif" font-size="32" font-weight="600" fill="#fb923c" text-anchor="middle">Vite</text>
  <rect x="460" y="290" width="280" height="100" rx="12" fill="#3b82f6" fill-opacity="0.15"/>
  <rect x="460" y="290" width="280" height="24" rx="8" fill="#3b82f6" fill-opacity="0.3"/>
  <text x="600" y="360" font-family="system-ui, sans-serif" font-size="32" font-weight="600" fill="#60a5fa" text-anchor="middle">Webpack</text>
  <rect x="820" y="290" width="280" height="100" rx="12" fill="#22c55e" fill-opacity="0.15"/>
  <rect x="820" y="290" width="280" height="24" rx="8" fill="#22c55e" fill-opacity="0.3"/>
  <text x="960" y="360" font-family="system-ui, sans-serif" font-size="32" font-weight="600" fill="#4ade80" text-anchor="middle">Next.js</text>
  <path d="M380 340 L460 340" stroke="#71717a" stroke-width="2" stroke-dasharray="4"/>
  <path d="M740 340 L820 340" stroke="#71717a" stroke-width="2" stroke-dasharray="4"/>
  <text x="600" y="480" font-family="system-ui, sans-serif" font-size="20" fill="#71717a" text-anchor="middle">构建工具 → 模块打包 → 全栈框架</text>
  <circle cx="200" cy="500" r="40" fill="#f97316" fill-opacity="0.1"/>
  <circle cx="600" cy="500" r="40" fill="#3b82f6" fill-opacity="0.1"/>
  <circle cx="1000" cy="500" r="40" fill="#22c55e" fill-opacity="0.1"/>
  <text x="200" y="507" font-family="monospace" font-size="24" fill="#fb923c" text-anchor="middle">⚡</text>
  <text x="600" y="507" font-family="monospace" font-size="24" fill="#60a5fa" text-anchor="middle">📦</text>
  <text x="1000" y="507" font-family="monospace" font-size="24" fill="#4ade80" text-anchor="middle">▲</text>
</svg>
