<svg xmlns="http://www.w3.org/2000/svg" viewBox="0 0 1200 630" fill="none">
  <rect width="1200" height="630" fill="#0c4a6e"/>
  <defs>
    <linearGradient id="sandGrad" x1="0%" y1="0%" x2="100%" y2="100%">
      <stop offset="0%" style="stop-color:#0c4a6e"/>
      <stop offset="100%" style="stop-color:#164e63"/>
    </linearGradient>
  </defs>
  <rect width="1200" height="630" fill="url(#sandGrad)"/>
  <text x="600" y="200" font-family="system-ui, sans-serif" font-size="56" font-weight="700" fill="white" text-anchor="middle">Interactive Code</text>
  <text x="600" y="260" font-family="system-ui, sans-serif" font-size="32" font-weight="400" fill="#7dd3fc" text-anchor="middle">with Sandpack</text>
  <rect x="150" y="320" width="900" height="240" rx="12" fill="#1e293b"/>
  <rect x="150" y="320" width="900" height="32" rx="8" fill="#334155"/>
  <circle cx="180" cy="336" r="6" fill="#ef4444"/>
  <circle cx="200" cy="336" r="6" fill="#f59e0b"/>
  <circle cx="220" cy="336" r="6" fill="#22c55e"/>
  <rect x="170" y="370" width="200" height="24" rx="4" fill="#0ea5e9" fill-opacity="0.3"/>
  <text x="270" y="387" font-family="monospace" font-size="14" fill="#38bdf8">App.js</text>
  <rect x="180" y="410" width="300" height="120" rx="4" fill="#0f172a"/>
  <text x="200" y="435" font-family="monospace" font-size="14" fill="#c084fc">import</text>
  <text x="290" y="435" font-family="monospace" font-size="14" fill="#e2e8f0"> useState</text>
  <text x="390" y="435" font-family="monospace" font-size="14" fill="#c084fc">from</text>
  <text x="440" y="435" font-family="monospace" font-size="14" fill="#4ade80">"react"</text>
  <text x="200" y="460" font-family="monospace" font-size="14" fill="#c084fc">export default</text>
  <text x="340" y="460" font-family="monospace" font-size="14" fill="#fbbf24">function</text>
  <text x="400" y="460" font-family="monospace" font-size="14" fill="#38bdf8">App</text>
  <text x="430" y="460" font-family="monospace" font-size="14" fill="#e2e8f0">() {'{'}</text>
  <text x="200" y="485" font-family="monospace" font-size="14" fill="#94a3b8">  const</text>
  <text x="250" y="485" font-family="monospace" font-size="14" fill="#f472b6">[count</text>
  <text x="310" y="485" font-family="monospace" font-size="14" fill="#e2e8f0">, setCount] =</text>
  <text x="410" y="485" font-family="monospace" font-size="14" fill="#fbbf24">useState</text>
  <text x="470" y="485" font-family="monospace" font-size="14" fill="#e2e8f0">(0)</text>
  <text x="200" y="510" font-family="monospace" font-size="14" fill="#fbbf24">return</text>
  <text x="260" y="510" font-family="monospace" font-size="14" fill="#e2e8f0">&lt;</text>
  <text x="270" y="510" font-family="monospace" font-size="14" fill="#38bdf8">button</text>
  <text x="330" y="510" font-family="monospace" font-size="14" fill="#e2e8f0">&gt;</text>
  <text x="370" y="510" font-family="monospace" font-size="14" fill="#fbbf24">Count:</text>
  <text x="430" y="510" font-family="monospace" font-size="14" fill="#e2e8f0">{'{'}</text>
  <text x="450" y="510" font-family="monospace" font-size="14" fill="#f472b6">count</text>
  <text x="480" y="510" font-family="monospace" font-size="14" fill="#e2e8f0">{'}'}</text>
  <text x="510" y="510" font-family="monospace" font-size="14" fill="#e2e8f0">&lt;/</text>
  <text x="530" y="510" font-family="monospace" font-size="14" fill="#38bdf8">button&gt;</text>
</svg>
