<svg xmlns="http://www.w3.org/2000/svg" viewBox="0 0 1200 630" fill="none">
  <rect width="1200" height="630" fill="#18181b"/>
  <defs>
    <linearGradient id="tocGrad" x1="0%" y1="0%" x2="100%" y2="100%">
      <stop offset="0%" style="stop-color:#18181b"/>
      <stop offset="100%" style="stop-color:#27272a"/>
    </linearGradient>
  </defs>
  <rect width="1200" height="630" fill="url(#tocGrad)"/>
  <text x="600" y="220" font-family="system-ui, sans-serif" font-size="48" font-weight="700" fill="white" text-anchor="middle">MDX 目录实现</text>
  <text x="600" y="280" font-family="system-ui, sans-serif" font-size="28" fill="#a1a1aa" text-anchor="middle">Table of Contents</text>
  <rect x="100" y="340" width="300" height="200" rx="8" fill="#27272a" stroke="#3f3f46" stroke-width="2"/>
  <rect x="120" y="360" width="60" height="12" rx="2" fill="#71717a"/>
  <rect x="120" y="385" width="200" height="10" rx="2" fill="#52525b"/>
  <rect x="140" y="410" width="180" height="8" rx="2" fill="#3f3f46"/>
  <rect x="140" y="430" width="160" height="8" rx="2" fill="#3f3f46"/>
  <rect x="160" y="450" width="140" height="8" rx="2" fill="#3f3f46"/>
  <rect x="140" y="475" width="180" height="8" rx="2" fill="#3f3f46"/>
  <rect x="700" y="340" width="400" height="200" rx="8" fill="#27272a" stroke="#52525b" stroke-width="2"/>
  <text x="900" y="420" font-family="monospace" font-size="18" fill="#a1a1aa" text-anchor="middle">## 1. Overview</text>
  <text x="900" y="450" font-family="monospace" font-size="18" fill="#a1a1aa" text-anchor="middle">## 2. Extract</text>
  <text x="900" y="480" font-family="monospace" font-size="18" fill="#a1a1aa" text-anchor="middle">## 3. Render</text>
  <line x1="420" y1="440" x2="680" y2="380" stroke="#52525b" stroke-width="2" stroke-dasharray="4 4"/>
  <line x1="420" y1="440" x2="680" y2="440" stroke="#52525b" stroke-width="2" stroke-dasharray="4 4"/>
  <line x1="420" y1="440" x2="680" y2="500" stroke="#52525b" stroke-width="2" stroke-dasharray="4 4"/>
</svg>
